<svg width="300" height="200" xmlns="http://www.w3.org/2000/svg">
  <defs>
    <linearGradient id="propBg" x1="0%" y1="0%" x2="100%" y2="100%">
      <stop offset="0%" style="stop-color:#1E293B;stop-opacity:1" />
      <stop offset="100%" style="stop-color:#334155;stop-opacity:1" />
    </linearGradient>
  </defs>
  
  <!-- Background -->
  <rect width="300" height="200" fill="#F8FAFC"/>
  
  <!-- Header -->
  <rect x="0" y="0" width="300" height="40" fill="url(#propBg)"/>
  <text x="15" y="25" font-family="Arial, sans-serif" font-size="14" font-weight="bold" fill="white">Gestión Inmobiliaria - Dashboard</text>
  
  <!-- Left Sidebar -->
  <rect x="0" y="40" width="80" height="160" fill="#F1F5F9" stroke="#E2E8F0" stroke-width="1"/>
  <text x="10" y="60" font-family="Arial, sans-serif" font-size="10" font-weight="bold" fill="#374151">Propiedades</text>
  <rect x="10" y="65" width="60" height="15" fill="#3B82F6" rx="2"/>
  <text x="15" y="75" font-family="Arial, sans-serif" font-size="8" fill="white">Disponibles</text>
  
  <rect x="10" y="85" width="60" height="15" fill="#EF4444" rx="2"/>
  <text x="15" y="95" font-family="Arial, sans-serif" font-size="8" fill="white">Vendidas</text>
  
  <rect x="10" y="105" width="60" height="15" fill="#10B981" rx="2"/>
  <text x="15" y="115" font-family="Arial, sans-serif" font-size="8" fill="white">En Proceso</text>
  
  <!-- Main Content Area -->
  <rect x="80" y="40" width="220" height="160" fill="white" stroke="#E2E8F0" stroke-width="1"/>
  
  <!-- Property Cards -->
  <rect x="90" y="50" width="95" height="60" fill="#F8FAFC" stroke="#E2E8F0" stroke-width="1" rx="4"/>
  <rect x="95" y="55" width="85" height="25" fill="#CBD5E1" rx="2"/>
  <text x="100" y="90" font-family="Arial, sans-serif" font-size="9" font-weight="bold" fill="#1F2937">Edificio Torre Norte</text>
  <text x="100" y="102" font-family="Arial, sans-serif" font-size="8" fill="#6B7280">$285,000 - 2 amb</text>
  
  <rect x="195" y="50" width="95" height="60" fill="#F8FAFC" stroke="#E2E8F0" stroke-width="1" rx="4"/>
  <rect x="200" y="55" width="85" height="25" fill="#CBD5E1" rx="2"/>
  <text x="205" y="90" font-family="Arial, sans-serif" font-size="9" font-weight="bold" fill="#1F2937">Complejo Palermo</text>
  <text x="205" y="102" font-family="Arial, sans-serif" font-size="8" fill="#6B7280">$320,000 - 3 amb</text>
  
  <!-- Stats Section -->
  <rect x="90" y="120" width="200" height="70" fill="#F9FAFB" stroke="#E2E8F0" stroke-width="1" rx="4"/>
  <text x="100" y="140" font-family="Arial, sans-serif" font-size="10" font-weight="bold" fill="#374151">Estadísticas del Mes</text>
  
  <text x="100" y="155" font-family="Arial, sans-serif" font-size="12" font-weight="bold" fill="#3B82F6">1,247</text>
  <text x="100" y="167" font-family="Arial, sans-serif" font-size="8" fill="#6B7280">Propiedades activas</text>
  
  <text x="180" y="155" font-family="Arial, sans-serif" font-size="12" font-weight="bold" fill="#10B981">324</text>
  <text x="180" y="167" font-family="Arial, sans-serif" font-size="8" fill="#6B7280">Ventas cerradas</text>
  
  <text x="250" y="155" font-family="Arial, sans-serif" font-size="12" font-weight="bold" fill="#F59E0B">$2.4M</text>
  <text x="250" y="167" font-family="Arial, sans-serif" font-size="8" fill="#6B7280">Ingresos</text>
</svg>