<svg width="300" height="200" xmlns="http://www.w3.org/2000/svg">
  <defs>
    <linearGradient id="analyticsBg" x1="0%" y1="0%" x2="100%" y2="100%">
      <stop offset="0%" style="stop-color:#F8FAFC;stop-opacity:1" />
      <stop offset="100%" style="stop-color:#F1F5F9;stop-opacity:1" />
    </linearGradient>
  </defs>
  
  <!-- Background -->
  <rect width="300" height="200" fill="url(#analyticsBg)" stroke="#E2E8F0" stroke-width="1"/>
  
  <!-- Header -->
  <rect x="10" y="10" width="280" height="25" fill="#3B82F6" rx="4"/>
  <text x="20" y="27" font-family="Arial, sans-serif" font-size="12" font-weight="bold" fill="white">EB Metrics - Analytics Platform</text>
  
  <!-- Left Panel - Metrics -->
  <rect x="15" y="45" width="120" height="140" fill="white" stroke="#E2E8F0" stroke-width="1" rx="4"/>
  <text x="25" y="60" font-family="Arial, sans-serif" font-size="10" font-weight="bold" fill="#374151">Key Metrics</text>
  
  <!-- Metric Cards -->
  <rect x="25" y="70" width="100" height="30" fill="#EEF2FF" stroke="#C7D2FE" stroke-width="1" rx="4"/>
  <text x="30" y="82" font-family="Arial, sans-serif" font-size="8" fill="#3730A3">Total Revenue</text>
  <text x="30" y="94" font-family="Arial, sans-serif" font-size="14" font-weight="bold" fill="#1E293B">$124,567</text>
  
  <rect x="25" y="105" width="100" height="30" fill="#F0FDF4" stroke="#BBF7D0" stroke-width="1" rx="4"/>
  <text x="30" y="117" font-family="Arial, sans-serif" font-size="8" fill="#166534">Active Users</text>
  <text x="30" y="129" font-family="Arial, sans-serif" font-size="14" font-weight="bold" fill="#1E293B">2,847</text>
  
  <rect x="25" y="140" width="100" height="30" fill="#FEF3C7" stroke="#FCD34D" stroke-width="1" rx="4"/>
  <text x="30" y="152" font-family="Arial, sans-serif" font-size="8" fill="#92400E">Conversion Rate</text>
  <text x="30" y="164" font-family="Arial, sans-serif" font-size="14" font-weight="bold" fill="#1E293B">12.4%</text>
  
  <!-- Right Panel - Charts -->
  <rect x="145" y="45" width="140" height="140" fill="white" stroke="#E2E8F0" stroke-width="1" rx="4"/>
  <text x="155" y="60" font-family="Arial, sans-serif" font-size="10" font-weight="bold" fill="#374151">Performance Overview</text>
  
  <!-- Line Chart -->
  <rect x="155" y="70" width="120" height="60" fill="#F8FAFC" stroke="#E2E8F0" stroke-width="1" rx="2"/>
  <path d="M 165 115 L 180 105 L 195 110 L 210 95 L 225 100 L 240 85 L 255 90 L 265 80" 
        stroke="#3B82F6" stroke-width="2" fill="none"/>
  
  <!-- Data Points -->
  <circle cx="180" cy="105" r="2" fill="#3B82F6"/>
  <circle cx="195" cy="110" r="2" fill="#3B82F6"/>
  <circle cx="210" cy="95" r="2" fill="#3B82F6"/>
  <circle cx="225" cy="100" r="2" fill="#3B82F6"/>
  <circle cx="240" cy="85" r="2" fill="#3B82F6"/>
  <circle cx="255" cy="90" r="2" fill="#3B82F6"/>
  <circle cx="265" cy="80" r="2" fill="#3B82F6"/>
  
  <!-- Small Bar Chart -->
  <rect x="160" y="145" width="8" height="25" fill="#10B981"/>
  <rect x="172" y="140" width="8" height="30" fill="#3B82F6"/>
  <rect x="184" y="150" width="8" height="20" fill="#F59E0B"/>
  <rect x="196" y="135" width="8" height="35" fill="#EF4444"/>
  <rect x="208" y="145" width="8" height="25" fill="#8B5CF6"/>
  <rect x="220" y="130" width="8" height="40" fill="#06B6D4"/>
</svg>