<svg width="300" height="200" xmlns="http://www.w3.org/2000/svg">
  <defs>
    <linearGradient id="gammaBg" x1="0%" y1="0%" x2="100%" y2="100%">
      <stop offset="0%" style="stop-color:#111827;stop-opacity:1" />
      <stop offset="100%" style="stop-color:#1F2937;stop-opacity:1" />
    </linearGradient>
  </defs>
  
  <!-- Background -->
  <rect width="300" height="200" fill="url(#gammaBg)"/>
  
  <!-- Header -->
  <rect x="10" y="10" width="280" height="25" fill="#374151" rx="4"/>
  <text x="20" y="27" font-family="Arial, sans-serif" font-size="12" font-weight="bold" fill="white">Gamma Analytics - Data Visualization</text>
  
  <!-- Main Dashboard Area -->
  <rect x="15" y="45" width="270" height="140" fill="#1F2937" stroke="#374151" stroke-width="1" rx="6"/>
  
  <!-- Left Panel - Circular Progress -->
  <circle cx="80" cy="115" r="35" fill="none" stroke="#374151" stroke-width="8"/>
  <circle cx="80" cy="115" r="35" fill="none" stroke="#10B981" stroke-width="8" 
          stroke-dasharray="175" stroke-dashoffset="45" transform="rotate(-90 80 115)"/>
  
  <!-- Progress Text -->
  <text x="80" y="115" font-family="Arial, sans-serif" font-size="14" font-weight="bold" text-anchor="middle" fill="white">75%</text>
  <text x="80" y="130" font-family="Arial, sans-serif" font-size="9" text-anchor="middle" fill="#9CA3AF">Completion</text>
  
  <!-- Center - Bar Chart -->
  <rect x="130" y="60" width="90" height="100" fill="#111827" stroke="#374151" stroke-width="1" rx="4"/>
  
  <!-- Bars -->
  <rect x="140" y="120" width="8" height="30" fill="#3B82F6"/>
  <text x="144" y="158" font-family="Arial, sans-serif" font-size="7" text-anchor="middle" fill="#9CA3AF">Jan</text>
  
  <rect x="152" y="110" width="8" height="40" fill="#10B981"/>
  <text x="156" y="158" font-family="Arial, sans-serif" font-size="7" text-anchor="middle" fill="#9CA3AF">Feb</text>
  
  <rect x="164" y="100" width="8" height="50" fill="#F59E0B"/>
  <text x="168" y="158" font-family="Arial, sans-serif" font-size="7" text-anchor="middle" fill="#9CA3AF">Mar</text>
  
  <rect x="176" y="90" width="8" height="60" fill="#EF4444"/>
  <text x="180" y="158" font-family="Arial, sans-serif" font-size="7" text-anchor="middle" fill="#9CA3AF">Apr</text>
  
  <rect x="188" y="95" width="8" height="55" fill="#8B5CF6"/>
  <text x="192" y="158" font-family="Arial, sans-serif" font-size="7" text-anchor="middle" fill="#9CA3AF">May</text>
  
  <rect x="200" y="85" width="8" height="65" fill="#06B6D4"/>
  <text x="204" y="158" font-family="Arial, sans-serif" font-size="7" text-anchor="middle" fill="#9CA3AF">Jun</text>
  
  <!-- Chart Title -->
  <text x="175" y="75" font-family="Arial, sans-serif" font-size="9" text-anchor="middle" fill="#F3F4F6">Monthly Performance</text>
  
  <!-- Right Panel - KPIs -->
  <rect x="235" y="60" width="40" height="100" fill="#111827" stroke="#374151" stroke-width="1" rx="4"/>
  
  <!-- KPI Values -->
  <text x="255" y="80" font-family="Arial, sans-serif" font-size="12" font-weight="bold" text-anchor="middle" fill="#10B981">1.8K</text>
  <text x="255" y="92" font-family="Arial, sans-serif" font-size="7" text-anchor="middle" fill="#9CA3AF">Users</text>
  
  <text x="255" y="110" font-family="Arial, sans-serif" font-size="12" font-weight="bold" text-anchor="middle" fill="#3B82F6">23%</text>
  <text x="255" y="122" font-family="Arial, sans-serif" font-size="7" text-anchor="middle" fill="#9CA3AF">Growth</text>
  
  <text x="255" y="140" font-family="Arial, sans-serif" font-size="12" font-weight="bold" text-anchor="middle" fill="#F59E0B">4.2</text>
  <text x="255" y="152" font-family="Arial, sans-serif" font-size="7" text-anchor="middle" fill="#9CA3AF">Rating</text>
</svg>