<svg width="300" height="200" xmlns="http://www.w3.org/2000/svg">
  <defs>
    <linearGradient id="bgGrad" x1="0%" y1="0%" x2="100%" y2="100%">
      <stop offset="0%" style="stop-color:#F8FAFC;stop-opacity:1" />
      <stop offset="100%" style="stop-color:#E2E8F0;stop-opacity:1" />
    </linearGradient>
  </defs>
  
  <!-- Background -->
  <rect width="300" height="200" fill="url(#bgGrad)" stroke="#CBD5E1" stroke-width="1"/>
  
  <!-- Header -->
  <rect x="10" y="10" width="280" height="30" fill="#1E293B" rx="4"/>
  <text x="20" y="30" font-family="Arial, sans-serif" font-size="12" fill="white">Analytics Dashboard - Nazca Brands</text>
  
  <!-- Main Chart Area -->
  <rect x="20" y="50" width="180" height="120" fill="#F1F5F9" stroke="#CBD5E1" stroke-width="1" rx="4"/>
  
  <!-- Bar Chart -->
  <rect x="30" y="120" width="15" height="40" fill="#3B82F6"/>
  <rect x="50" y="100" width="15" height="60" fill="#8B5CF6"/>
  <rect x="70" y="110" width="15" height="50" fill="#06B6D4"/>
  <rect x="90" y="90" width="15" height="70" fill="#10B981"/>
  <rect x="110" y="130" width="15" height="30" fill="#F59E0B"/>
  <rect x="130" y="105" width="15" height="55" fill="#EF4444"/>
  
  <!-- Gauge Chart -->
  <circle cx="150" cy="100" r="25" fill="none" stroke="#E5E7EB" stroke-width="8"/>
  <circle cx="150" cy="100" r="25" fill="none" stroke="#10B981" stroke-width="8" 
          stroke-dasharray="78.5" stroke-dashoffset="20" transform="rotate(-90 150 100)"/>
  <text x="150" y="105" font-family="Arial, sans-serif" font-size="10" text-anchor="middle" fill="#1F2937">85%</text>
  
  <!-- Right Panel - KPIs -->
  <rect x="210" y="50" width="80" height="120" fill="#F8FAFC" stroke="#CBD5E1" stroke-width="1" rx="4"/>
  
  <!-- KPI 1 -->
  <rect x="220" y="60" width="60" height="25" fill="#EEF2FF" rx="4"/>
  <text x="225" y="72" font-family="Arial, sans-serif" font-size="8" fill="#3730A3">Users Active</text>
  <text x="225" y="82" font-family="Arial, sans-serif" font-size="12" font-weight="bold" fill="#1E293B">1,247</text>
  
  <!-- KPI 2 -->
  <rect x="220" y="95" width="60" height="25" fill="#F0FDF4" rx="4"/>
  <text x="225" y="107" font-family="Arial, sans-serif" font-size="8" fill="#166534">Conversion</text>
  <text x="225" y="117" font-family="Arial, sans-serif" font-size="12" font-weight="bold" fill="#1E293B">23.4%</text>
  
  <!-- KPI 3 -->
  <rect x="220" y="130" width="60" height="25" fill="#FEF3C7" rx="4"/>
  <text x="225" y="142" font-family="Arial, sans-serif" font-size="8" fill="#92400E">Revenue</text>
  <text x="225" y="152" font-family="Arial, sans-serif" font-size="12" font-weight="bold" fill="#1E293B">$45.2K</text>
</svg>