<svg width="400" height="300" viewBox="0 0 400 300" fill="none" xmlns="http://www.w3.org/2000/svg">
  <rect width="400" height="300" fill="#1a1a2e"/>
  
  <!-- Background pattern -->
  <defs>
    <pattern id="grid" width="20" height="20" patternUnits="userSpaceOnUse">
      <path d="M 20 0 L 0 0 0 20" fill="none" stroke="#16213e" stroke-width="1" opacity="0.5"/>
    </pattern>
  </defs>
  <rect width="400" height="300" fill="url(#grid)"/>
  
  <!-- Main analytics elements -->
  <g transform="translate(50, 50)">
    <!-- Charts background -->
    <rect x="0" y="0" width="300" height="200" rx="12" fill="#0f3460" opacity="0.8"/>
    
    <!-- Bar chart -->
    <g transform="translate(20, 20)">
      <rect x="0" y="80" width="12" height="40" fill="#00d4ff"/>
      <rect x="20" y="60" width="12" height="60" fill="#00d4ff"/>
      <rect x="40" y="90" width="12" height="30" fill="#00d4ff"/>
      <rect x="60" y="40" width="12" height="80" fill="#00d4ff"/>
      <rect x="80" y="70" width="12" height="50" fill="#00d4ff"/>
    </g>
    
    <!-- Line chart -->
    <g transform="translate(140, 30)">
      <polyline points="0,90 20,70 40,50 60,40 80,30 100,25" stroke="#e233ff" stroke-width="3" fill="none"/>
      <circle cx="0" cy="90" r="4" fill="#e233ff"/>
      <circle cx="20" cy="70" r="4" fill="#e233ff"/>
      <circle cx="40" cy="50" r="4" fill="#e233ff"/>
      <circle cx="60" cy="40" r="4" fill="#e233ff"/>
      <circle cx="80" cy="30" r="4" fill="#e233ff"/>
      <circle cx="100" cy="25" r="4" fill="#e233ff"/>
    </g>
    
    <!-- Pie chart -->
    <g transform="translate(220, 100)">
      <circle cx="0" cy="0" r="30" fill="#00d4ff" transform="rotate(-90)"/>
      <circle cx="0" cy="0" r="30" fill="#e233ff" stroke-dasharray="47 141" stroke-dashoffset="0" transform="rotate(-90)" stroke="#e233ff" fill="none" stroke-width="60"/>
    </g>
    
    <!-- KPI boxes -->
    <g transform="translate(20, 140)">
      <rect x="0" y="0" width="60" height="30" rx="6" fill="#00d4ff" opacity="0.2"/>
      <text x="30" y="20" text-anchor="middle" fill="#00d4ff" font-family="Arial" font-size="12" font-weight="bold">92%</text>
      
      <rect x="80" y="0" width="60" height="30" rx="6" fill="#e233ff" opacity="0.2"/>
      <text x="110" y="20" text-anchor="middle" fill="#e233ff" font-family="Arial" font-size="12" font-weight="bold">1.2K</text>
      
      <rect x="160" y="0" width="60" height="30" rx="6" fill="#00ff88" opacity="0.2"/>
      <text x="190" y="20" text-anchor="middle" fill="#00ff88" font-family="Arial" font-size="12" font-weight="bold">$45K</text>
    </g>
  </g>
  
  <!-- Company logo/name -->
  <text x="200" y="280" text-anchor="middle" fill="#00d4ff" font-family="Arial" font-size="24" font-weight="bold">EB METRICS</text>
</svg>